<svg version="1.0" xmlns="http://www.w3.org/2000/svg" xmlns:xlink="http://www.w3.org/1999/xlink" x="0px" y="0px" viewBox="0 0 350 350" enable-background="new 0 0 350 350" xml:space="preserve">
<g id="Layer_2">
	<circle class="wing-circle-bot" fill="#F7931E" cx="121" cy="194.666" r="53.666"/>
	<circle class="wing-circle-bot" fill="#F7931E" cx="231" cy="193.666" r="53.666"/>
	<ellipse class="wing-circle-top" fill="#00FFFF" cx="259.667" cy="134.666" rx="37" ry="27.667"/>
	<ellipse class="wing-circle-top" fill="#00FFFF" cx="94.667" cy="137.666" rx="37" ry="27.667"/>
</g>
<g id="Layer_3">
	<g>
		<path class="bgmask" fill="#CECEC5" d="M0,0v350h350V0H0z M302.488,105.333c0,0.833-1.332,2.833-3.832,3s-4.668-1.833-4.668-2.833
			s1.834-2.667,4.668-2.667C301.489,102.833,302.488,104.333,302.488,105.333z M296.988,93c2-0.5,5.261,1.479,4.5,3
			c-2.166,4.334-6.5,1.167-7,0S294.988,93.5,296.988,93z M290.156,89.167c3.666-0.833,4.666,1.333,4.666,1.333
			c-3.666,2.667-8.666,1.833-8.666,1.833S286.488,90,290.156,89.167z M284.822,96.667c8-0.167,8.334,3.667,8.334,3.667
			c-0.334,1.167-0.168,3.167-7,3.667c-6.834,0.5-9.668-2.834-10.168-3.834C275.488,99.167,276.822,96.833,284.822,96.667z
			 M270.822,110c-3,7.334-10.334,3.833-10.834,3.166c-0.5-0.666,2.168-2.333,4.668-3C267.156,109.5,270.822,110,270.822,110z
			 M261.488,103.666c3.668-3.333,5.167-2.832,5.5-1.666c0.334,1.166,0.834,8.5-8.166,7.666
			C258.822,109.666,257.822,107,261.488,103.666z M263.322,118.333c-3.5,3-11,3-12,1s1.5-3,5.5-3S263.322,118.333,263.322,118.333z
			 M255.988,103.166c-3,6.167-8.166,5.167-8.166,5.167C249.988,102.666,255.988,103.166,255.988,103.166z M237.156,114.833
			c4.833-3.333,10.5-3.333,10.5-3.333c-2.167,3.667-15.668,10.333-17.668,10.166C227.988,121.5,232.322,118.166,237.156,114.833z
			 M198.322,152.333c21-21.5,25-30,51.5-28.5c0,0-7.5,6-8.5,16c0,0,5.5-18,17.5-15s10.5,7.5,10,11s-4.5,8.5-11.5,8s-16-4-16-4
			s-3,3.5-5.5,3.5s-12,9.5-12,12.5s-15.5,10-20.5,12s-22,13.5-23,11S177.322,173.833,198.322,152.333z M225.655,198.667
			c-1.333-2-5.167-5.667-5.167-5.667s9.167-2.5,20-2c10.834,0.5,15.834,3.833,17.834,10.667s-21.667,2.5-26.334,1.833
			C227.322,202.833,226.988,200.667,225.655,198.667z M228.822,209.667c3.166,8.334,7.833,11.333,7,11.5
			c-0.834,0.167-8.834,3.166-31.834-10.667s-19.166-20.833-19.166-20.833c19.666,8.166,23.5,5.166,30,3.833
			S225.655,201.333,228.822,209.667z M251.822,185.333c-4.5-0.5-14.5-5.5-20-5.5s-28.5,5-35,5s-16-4-16-4s11-1.5,17-6
			s19-13.5,26-13.5s14,3.5,18.5,3.5s23,0.5,20,9.5S256.322,185.833,251.822,185.333z M255.822,163.833c-8.5-0.5-25.5-4-28-6
			s-0.5-6,2.5-8.5s6-6,19-4.5s19,4,16.5,11C264.813,158.658,264.322,164.333,255.822,163.833z M149,152.333c21,21.5,19,24,18,26.5
			s-18-9-23-11s-20.5-9-20.5-12s-9.5-12.5-12-12.5s-5.5-3.5-5.5-3.5s-9,3.5-16,4s-11-4.5-11.5-8s-2-8,10-11s17.5,15,17.5,15
			c-1-10-8.5-16-8.5-16C124,122.333,128,130.833,149,152.333z M132.5,193.5c6.5,1.333,10.333,4.333,30-3.833
			c0,0,3.834,7-19.167,20.833c-23,13.833-31,10.834-31.833,10.667s3.833-3.166,7-11.5S126,192.167,132.5,193.5z M115.333,203.5
			C110.667,204.167,87,208.501,89,201.667S96,191.5,106.833,191s20,2,20,2s-3.833,3.667-5.167,5.667S120,202.833,115.333,203.5z
			 M150.5,184.833c-6.5,0-29.5-5-35-5s-15.5,5-20,5.5s-7.5-2-10.5-11s15.5-9.5,20-9.5s11.5-3.5,18.5-3.5s20,9,26,13.5s17,6,17,6
			S157,184.833,150.5,184.833z M81.5,155.833c-2.5-7,3.5-9.5,16.5-11s16,2,19,4.5s5,6.5,2.5,8.5s-19.5,5.5-28,6
			S82.509,158.658,81.5,155.833z M110.167,114.833c4.833,3.333,9.167,6.667,7.167,6.833c-2,0.167-15.5-6.499-17.667-10.166
			C99.667,111.5,105.333,111.5,110.167,114.833z M99.5,108.333c0,0-5.167,1-8.167-5.167C91.333,103.166,97.333,102.666,99.5,108.333
			z M96,119.333c-1,2-8.5,2-12-1c0,0,2.5-2,6.5-2S97,117.333,96,119.333z M80.333,102c0.333-1.166,1.833-1.667,5.5,1.666
			c3.667,3.334,2.667,6,2.667,6C79.5,110.5,80,103.166,80.333,102z M82.667,110.166c2.5,0.667,5.167,2.334,4.667,3
			c-0.5,0.667-7.833,4.168-10.833-3.166C76.5,110,80.167,109.5,82.667,110.166z M71.333,100.166c-0.5,1-3.334,4.334-10.167,3.834
			s-6.667-2.5-7-3.667c0,0,0.333-3.833,8.333-3.667S71.833,99.167,71.333,100.166z M57.167,89.167c3.667,0.833,4,3.167,4,3.167
			s-5,0.834-8.667-1.833C52.5,90.5,53.5,88.333,57.167,89.167z M50.333,93c2,0.5,3,1.833,2.5,3s-4.833,4.334-7,0
			C45.073,94.479,48.333,92.5,50.333,93z M48.667,102.833c2.833,0,4.667,1.667,4.667,2.667s-2.167,3-4.667,2.833
			s-3.833-2.167-3.833-3C44.833,104.333,45.833,102.833,48.667,102.833z M47.333,114.5c-1.167,0.166-4.167-0.167-4.333-2.667
			c0,0-0.5-3,2.833-1.667C49.167,111.5,48.5,114.334,47.333,114.5z M48.5,118.666c0,0-0.167-3.333,3.333-3.333
			s3.833,2.167,3.833,3.5S50.333,123.666,48.5,118.666z M55.5,109.833c0,0-0.667-3.833,7.333-4.167c8-0.333,11.5-0.166,11.667,1.334
			s-0.667,2.833-5.667,3.833S56.667,113.333,55.5,109.833z M61,119c-0.31-1.137,1.833-3.167,7-3.667s8.167,1.001,7.833,4.167
			s-4,5.833-7,5.666C65.833,125,62,122.667,61,119z M64.167,134.333c0-2.333,2.333-5.666,4.833-5.833
			c2.827-0.189,4.333,4.166,4.333,5.833s-1.167,4.333-4,4S64.167,136.666,64.167,134.333z M67.167,144.833
			c-0.442-0.912,1.5-1.667,2.667-1.667s4,0.834,3.667,1.667S69.833,150.333,67.167,144.833z M69.833,155.666
			c0.283-1.979,2-3.166,4-3.166s5.333,1.833,4.167,5.166C76.833,161,69.5,158,69.833,155.666z M78.333,167.667
			c-3.5,0-3.333-0.834-3.5-1.667c-0.196-0.98,4.167-4.333,6-3.5S81.833,167.667,78.333,167.667z M84.167,220.333
			c0-5,5.833-11.334,10.167-12s16.667-1.999,19-2.666s5.333-2.001,4.5,1.166s-4.333,12.834-18.5,17.667
			S84.167,220.333,84.167,220.333z M95.667,240.667c-1.333,0-6.667-1.167-5.5-6.167c3.097-13.274,32-11.667,32-11.667
			c-3.5,0.5-18.5,12-20,14.167S97,240.667,95.667,240.667z M108.5,250.833c-2.5-0.666-6.667-3.833-6.167-6.833
			s8-16.167,30.833-24.667c0,0,2.333-1.499,2,0.334s-5.837,18.382-13.5,27.833C116.667,253.667,111,251.499,108.5,250.833z
			 M125.667,256.5c-3.667-2.5-2.333-7.167-1.5-9s10.518-20.738,12.333-28c0.5-2,2.167-3.167,3.167-3.667s14.5-8.332,26.333-21.666
			c0,0,1.834,5-2.833,13.833s-22.5,36.167-26,41.167S129.333,259,125.667,256.5z M138.167,262c-1.667-0.833-3.333-5,1.833-13.5
			s16.333-26.333,16.333-26.333s1,12.834-5.667,27.5C144,264.333,139.833,262.833,138.167,262z M170.167,205.167
			c-0.667,3.333-0.333,7.499-14.167,35.666c0,0,1.5-10.166,1.834-14.833c0.333-4.667,1.834-10.333,4.166-13
			c2.334-2.667,7.334-12.001,7.5-15.667C169.5,197.333,170.834,201.834,170.167,205.167z M177.155,205.167
			c-0.667-3.333,0.667-7.834,0.667-7.834c0.166,3.666,5.166,13,7.5,15.667c2.332,2.667,3.833,8.333,4.166,13
			c0.334,4.667,1.834,14.833,1.834,14.833C177.488,212.666,177.822,208.5,177.155,205.167z M209.155,262
			c-1.667,0.833-5.833,2.333-12.5-12.333s-5.667-27.5-5.667-27.5S202.155,240,207.322,248.5
			C212.488,257,210.822,261.167,209.155,262z M221.655,256.5c-3.667,2.5-8-2.333-11.5-7.333s-21.333-32.334-26-41.167
			s-2.833-13.833-2.833-13.833c11.833,13.334,25.333,21.166,26.333,21.666s2.667,1.667,3.167,3.667
			c1.814,7.262,11.5,26.167,12.333,28S225.322,254,221.655,256.5z M238.822,250.833c-2.5,0.666-8.167,2.834-13.167-3.333
			c-7.663-9.451-13.167-26-13.5-27.833s2-0.334,2-0.334c22.833,8.5,30.333,21.667,30.833,24.667S241.322,250.167,238.822,250.833z
			 M251.655,240.667c-1.333,0-5-1.5-6.5-3.667s-16.5-13.667-20-14.167c0,0,28.903-1.607,32,11.667
			C258.322,239.5,252.988,240.667,251.655,240.667z M247.988,224.5c-14.166-4.833-17.666-14.5-18.5-17.667
			c-0.832-3.167,2.167-1.833,4.5-1.166c2.334,0.667,14.667,2,19,2.666c4.334,0.666,10.167,7,10.167,12
			C263.155,220.333,262.155,229.333,247.988,224.5z M268.988,167.667c-3.5,0-4.332-4.334-2.5-5.167c1.834-0.833,6.197,2.52,6,3.5
			C272.322,166.833,272.488,167.667,268.988,167.667z M269.322,157.666c-1.166-3.333,2.166-5.166,4.166-5.166s3.718,1.187,4,3.166
			C277.822,158,270.488,161,269.322,157.666z M280.156,144.833c-2.667,5.5-6,0.833-6.334,0s2.5-1.667,3.666-1.667
			C278.655,143.166,280.598,143.921,280.156,144.833z M277.988,138.333c-2.833,0.333-4-2.333-4-4s1.507-6.022,4.334-5.833
			c2.5,0.167,4.834,3.5,4.834,5.833S280.822,138,277.988,138.333z M286.322,119c-1,3.667-4.834,6-7.834,6.166
			c-3,0.167-6.666-2.5-7-5.666c-0.333-3.166,2.668-4.667,7.834-4.167S286.633,117.863,286.322,119z M278.488,110.833
			c-5-1-5.832-2.333-5.666-3.833s3.666-1.667,11.666-1.334c8,0.334,7.334,4.167,7.334,4.167
			C290.656,113.333,283.488,111.833,278.488,110.833z M298.822,118.666c-1.834,5-7.166,1.5-7.166,0.167s0.332-3.5,3.832-3.5
			S298.822,118.666,298.822,118.666z M304.322,111.833c-0.166,2.5-3.166,2.833-4.334,2.667c-1.166-0.166-1.832-3,1.5-4.334
			C304.822,108.833,304.322,111.833,304.322,111.833z"/>
		<g>
			<g>
				
					<image overflow="visible" opacity="0.42" width="308" height="217" xlink:href="svg/49A99E7E.png"  transform="matrix(1 0 0 1 21 81)">
				</image>
				<g class="wings">
					<path d="M48.838,86.859c-16-1.5-12,8-11,12.5c1,4.5,1,15.5,20.5,41.5c0,0-2.5,3.5,0,7.5s4,10.5,4,12.5s1,12,6,13
						c0,0-3,13,9.5,21.5c0,0-4.5,4-4,10.5s-1.5,8.5-3,11.5s4,11.5,4,11.5s-5.5,11,3.5,14c0,0,0.5,12,8.5,14s4.5,4.5,6.5,5.5s5,1,5,1
						s2.5,3.5,8,3.5s5,3.5,8,4.5s14.5,2,19.5,0c4.511-1.804,32.21-17.854,37.591-65.758c-0.586,3.299-0.812,8.222-14.09,35.258
						c0,0,1.5-10.166,1.834-14.833c0.332-4.667,1.834-10.333,4.166-13c2.334-2.667,7.334-12.001,7.5-15.667
						c0,0,0.846,2.863,0.85,5.713c0.42-4.468,0.65-9.197,0.65-14.213c0-11.5-1-16.5-1-16.5S126.639,94.153,48.838,86.859z
						 M111.504,114.859c4.834,3.334,9.168,6.666,7.168,6.834c-2,0.166-15.501-6.5-17.668-10.168
						C101.004,111.525,106.671,111.525,111.504,114.859z M100.838,108.359c0,0-5.166,1-8.166-5.166
						C92.672,103.193,98.672,102.691,100.838,108.359z M97.338,119.359c-1,2-8.5,2-12-1c0,0,2.5-2,6.5-2
						S98.338,117.359,97.338,119.359z M81.672,102.025c0.333-1.166,1.832-1.666,5.5,1.668c3.666,3.332,2.666,6,2.666,6
						C80.838,110.525,81.338,103.193,81.672,102.025z M84.004,110.193c2.5,0.666,5.168,2.332,4.668,3
						c-0.5,0.666-7.834,4.166-10.834-3.168C77.838,110.025,81.504,109.525,84.004,110.193z M72.672,100.193
						c-0.5,1-3.334,4.332-10.168,3.832c-6.832-0.5-6.666-2.5-7-3.666c0,0,0.334-3.833,8.334-3.667
						C71.838,96.859,73.172,99.193,72.672,100.193z M58.504,89.193c3.668,0.833,4,3.166,4,3.166s-5,0.834-8.666-1.833
						C53.838,90.526,54.838,88.359,58.504,89.193z M51.672,93.026c2,0.5,3,1.833,2.5,3s-4.834,4.333-7,0
						C46.411,94.505,49.672,92.526,51.672,93.026z M50.004,102.859c2.834,0,4.668,1.666,4.668,2.666s-2.168,3-4.668,2.834
						s-3.832-2.168-3.832-3C46.172,104.359,47.171,102.859,50.004,102.859z M48.672,114.525c-1.168,0.168-4.168-0.166-4.334-2.666
						c0,0-0.5-3,2.834-1.666C50.504,111.525,49.838,114.359,48.672,114.525z M49.838,118.693c0,0-0.166-3.334,3.334-3.334
						s3.832,2.166,3.832,3.5S51.672,123.693,49.838,118.693z M56.838,109.859c0,0-0.666-3.834,7.334-4.166
						c8-0.334,11.5-0.168,11.666,1.332s-0.666,2.834-5.666,3.834S58.004,113.359,56.838,109.859z M62.338,119.025
						c-0.311-1.137,1.834-3.166,7-3.666s8.167,1,7.834,4.166c-0.334,3.168-4,5.834-7,5.668
						C67.172,125.025,63.338,122.693,62.338,119.025z M65.504,134.359c0-2.334,2.334-5.666,4.834-5.834
						c2.827-0.188,4.334,4.166,4.334,5.834c0,1.666-1.167,4.332-4,4C67.838,138.025,65.504,136.691,65.504,134.359z M68.504,144.859
						c-0.441-0.912,1.501-1.666,2.668-1.666c1.166,0,4,0.832,3.666,1.666S71.171,150.359,68.504,144.859z M71.172,155.693
						c0.282-1.98,2-3.168,4-3.168s5.332,1.834,4.166,5.168C78.172,161.025,70.838,158.025,71.172,155.693z M79.672,167.693
						c-3.5,0-3.334-0.834-3.5-1.668c-0.197-0.98,4.166-4.332,6-3.5C84.004,163.359,83.172,167.693,79.672,167.693z M99.338,144.859
						c13-1.5,16,2,19,4.5s5,6.5,2.5,8.5s-19.5,5.5-28,6s-8.991-5.176-10-8C80.338,148.859,86.338,146.359,99.338,144.859z
						 M85.505,220.359c0-5,5.833-11.334,10.167-12c4.333-0.666,16.666-1.999,19-2.666c2.333-0.667,5.332-2.001,4.5,1.166
						c-0.834,3.167-4.334,12.834-18.5,17.667C86.505,229.359,85.505,220.359,85.505,220.359z M123.005,198.693
						c-1.333,2-1.667,4.166-6.333,4.833c-4.667,0.667-28.334,5.001-26.334-1.833s7-10.167,17.834-10.667c10.833-0.5,20,2,20,2
						S124.338,196.693,123.005,198.693z M133.838,193.526c6.5,1.333,10.334,4.333,30.001-3.833c0,0,3.834,7-19.167,20.833
						c-23,13.833-31,10.834-31.834,10.667c-0.833-0.167,3.834-3.166,7-11.5C123.005,201.359,127.338,192.193,133.838,193.526z
						 M97.005,240.693c-1.333,0-6.667-1.167-5.5-6.167c3.097-13.274,32-11.667,32-11.667c-3.5,0.5-18.5,12-20,14.167
						S98.338,240.693,97.005,240.693z M109.838,250.859c-2.5-0.666-6.666-3.833-6.166-6.833s8-16.167,30.833-24.667
						c0,0,2.333-1.499,2,0.334s-5.837,18.382-13.5,27.833C118.005,253.693,112.338,251.525,109.838,250.859z M152.005,249.693
						c-6.667,14.666-10.833,13.166-12.5,12.333s-3.333-5,1.833-13.5c5.167-8.5,16.335-26.333,16.335-26.333
						S158.673,235.027,152.005,249.693z M164.505,208.026c-4.666,8.833-22.5,36.167-26,41.167s-7.833,9.833-11.5,7.333
						s-2.333-7.167-1.5-9s10.519-20.738,12.333-28c0.5-2,2.167-3.167,3.167-3.667s14.5-8.332,26.334-21.666
						C167.339,194.193,169.173,199.193,164.505,208.026z M151.839,184.859c-6.501,0-29.501-5-35.001-5s-15.5,5-20,5.5
						s-7.5-2-10.5-11s15.5-9.5,20-9.5s11.5-3.5,18.5-3.5s20,9,26,13.5s17,6,17,6S158.339,184.859,151.839,184.859z M168.339,178.859
						c-1,2.5-18-9-23.001-11c-5-2-20.5-9-20.5-12s-9.5-12.5-12-12.5s-5.5-3.5-5.5-3.5s-9,3.5-16,4s-11-4.5-11.5-8s-2-8,10-11
						s17.5,15,17.5,15c-1-10-8.5-16-8.5-16c26.5-1.5,30.5,7,51.5,28.5S169.339,176.359,168.339,178.859z M301.162,86.859
						c-77.801,7.294-122.5,85.5-122.5,85.5s-1,5-1,16.5c0,5.016,0.23,9.745,0.648,14.213c0.006-2.85,0.852-5.713,0.852-5.713
						c0.166,3.666,5.166,13,7.5,15.667c2.332,2.667,3.832,8.333,4.166,13s1.834,14.833,1.834,14.833
						c-13.279-27.036-13.504-31.959-14.092-35.258c5.383,47.903,33.08,63.954,37.592,65.758c5,2,16.5,1,19.5,0s2.5-4.5,8-4.5
						s8-3.5,8-3.5s3,0,5-1s-1.5-3.5,6.5-5.5s8.5-14,8.5-14c9-3,3.5-14,3.5-14s5.5-8.5,4-11.5s-3.5-5-3-11.5s-4-10.5-4-10.5
						c12.5-8.5,9.5-21.5,9.5-21.5c5-1,6-11,6-13s1.5-8.5,4-12.5s0-7.5,0-7.5c19.5-26,19.5-37,20.5-41.5
						C313.162,94.859,317.162,85.359,301.162,86.859z M303.828,105.359c0,0.832-1.332,2.834-3.832,3s-4.668-1.834-4.668-2.834
						s1.834-2.666,4.668-2.666C302.828,102.859,303.828,104.359,303.828,105.359z M298.328,93.026c2-0.5,5.26,1.479,4.5,3
						c-2.166,4.333-6.5,1.167-7,0S296.328,93.526,298.328,93.026z M291.496,89.193c3.666-0.834,4.666,1.333,4.666,1.333
						c-3.666,2.667-8.666,1.833-8.666,1.833S287.828,90.026,291.496,89.193z M286.162,96.693c8-0.167,8.334,3.667,8.334,3.667
						c-0.334,1.166-0.168,3.166-7,3.666c-6.834,0.5-9.668-2.832-10.168-3.832C276.828,99.193,278.162,96.859,286.162,96.693z
						 M272.162,110.025c-3,7.334-10.334,3.834-10.834,3.168c-0.5-0.668,2.168-2.334,4.668-3
						C268.496,109.525,272.162,110.025,272.162,110.025z M262.828,103.693c3.668-3.334,5.166-2.834,5.5-1.668
						c0.334,1.168,0.834,8.5-8.166,7.668C260.162,109.693,259.162,107.025,262.828,103.693z M264.662,118.359c-3.5,3-11,3-12,1
						s1.5-3,5.5-3S264.662,118.359,264.662,118.359z M257.328,103.193c-3,6.166-8.166,5.166-8.166,5.166
						C251.328,102.691,257.328,103.193,257.328,103.193z M238.496,114.859c4.832-3.334,10.5-3.334,10.5-3.334
						c-2.168,3.668-15.668,10.334-17.668,10.168C229.328,121.525,233.662,118.193,238.496,114.859z M181.662,178.859
						c-1-2.5-3-5,18-26.5s25-30,51.5-28.5c0,0-7.5,6-8.5,16c0,0,5.5-18,17.5-15s10.5,7.5,10,11s-4.5,8.5-11.5,8s-16-4-16-4
						s-3,3.5-5.5,3.5s-12,9.5-12,12.5s-15.5,10-20.5,12S182.662,181.359,181.662,178.859z M267.162,155.859
						c-1.01,2.824-1.5,8.5-10,8s-25.5-4-28-6s-0.5-6,2.5-8.5s6-6,19-4.5S269.662,148.859,267.162,155.859z M199.162,174.859
						c6-4.5,19-13.5,26-13.5s14,3.5,18.5,3.5s23,0.5,20,9.5s-6,11.5-10.5,11s-14.5-5.5-20-5.5s-28.5,5-35,5s-16-4-16-4
						S193.162,179.359,199.162,174.859z M226.994,198.693c-1.332-2-5.166-5.667-5.166-5.667s9.166-2.5,20-2
						s15.834,3.833,17.834,10.667s-21.668,2.5-26.334,1.833S228.328,200.693,226.994,198.693z M230.162,209.693
						c3.166,8.334,7.832,11.333,7,11.5c-0.834,0.167-8.834,3.166-31.834-10.667s-19.166-20.833-19.166-20.833
						c19.666,8.166,23.5,5.166,30,3.833S226.994,201.359,230.162,209.693z M210.494,262.026c-1.666,0.833-5.832,2.333-12.5-12.333
						c-6.666-14.666-5.666-27.5-5.666-27.5s11.166,17.833,16.334,26.333C213.828,257.026,212.162,261.193,210.494,262.026z
						 M222.994,256.526c-3.666,2.5-8-2.333-11.5-7.333s-21.332-32.334-26-41.167c-4.666-8.833-2.832-13.833-2.832-13.833
						c11.832,13.334,25.332,21.166,26.332,21.666s2.668,1.667,3.168,3.667c1.814,7.262,11.5,26.167,12.332,28
						C225.328,249.359,226.662,254.026,222.994,256.526z M240.162,250.859c-2.5,0.666-8.168,2.834-13.168-3.333
						c-7.662-9.451-13.166-26-13.5-27.833c-0.332-1.833,2-0.334,2-0.334c22.834,8.5,30.334,21.667,30.834,24.667
						S242.662,250.193,240.162,250.859z M252.994,240.693c-1.332,0-5-1.5-6.5-3.667s-16.5-13.667-20-14.167
						c0,0,28.904-1.607,32,11.667C259.662,239.526,254.328,240.693,252.994,240.693z M249.328,224.526
						c-14.166-4.833-17.666-14.5-18.5-17.667c-0.832-3.167,2.166-1.833,4.5-1.166s14.666,2,19,2.666s10.166,7,10.166,12
						C264.494,220.359,263.494,229.359,249.328,224.526z M270.328,167.693c-3.5,0-4.332-4.334-2.5-5.168
						c1.834-0.832,6.197,2.52,6,3.5C273.662,166.859,273.828,167.693,270.328,167.693z M270.662,157.693
						c-1.166-3.334,2.166-5.168,4.166-5.168s3.717,1.188,4,3.168C279.162,158.025,271.828,161.025,270.662,157.693z
						 M281.496,144.859c-2.668,5.5-6,0.834-6.334,0s2.5-1.666,3.666-1.666S281.938,143.947,281.496,144.859z M279.328,138.359
						c-2.834,0.332-4-2.334-4-4c0-1.668,1.506-6.021,4.334-5.834c2.5,0.168,4.834,3.5,4.834,5.834
						C284.496,136.691,282.162,138.025,279.328,138.359z M287.662,119.025c-1,3.668-4.834,6-7.834,6.168c-3,0.166-6.666-2.5-7-5.668
						c-0.334-3.166,2.668-4.666,7.834-4.166S287.973,117.889,287.662,119.025z M279.828,110.859c-5-1-5.832-2.334-5.666-3.834
						s3.666-1.666,11.666-1.332c8,0.332,7.334,4.166,7.334,4.166C291.996,113.359,284.828,111.859,279.828,110.859z
						 M300.162,118.693c-1.834,5-7.166,1.5-7.166,0.166s0.332-3.5,3.832-3.5S300.162,118.693,300.162,118.693z M305.662,111.859
						c-0.166,2.5-3.166,2.834-4.334,2.666c-1.166-0.166-1.832-3,1.5-4.332C306.162,108.859,305.662,111.859,305.662,111.859z"/>
				</g>
			</g>
			<g class="body">
				<ellipse cx="175.008" cy="202.146" rx="3.837" ry="40.786"/>
				<ellipse cx="175.007" cy="164.428" rx="6.944" ry="3.928"/>
			</g>
		</g>
	</g>
</g>
</svg>
