<svg version="1.1"
	 xmlns="http://www.w3.org/2000/svg" xmlns:xlink="http://www.w3.org/1999/xlink" xmlns:a="http://ns.adobe.com/AdobeSVGViewerExtensions/3.0/"
	 x="0px" y="0px" width="100px" height="100px" viewBox="0 0 100 100" overflow="visible" enable-background="new 0 0 100 100"
	 xml:space="preserve"
	 preserveAspectRatio="xMidYMin meet"
	 >
<defs>
</defs>
<path class="circle" fill="#FF0000" d="M100,49.998C100,77.614,77.614,100,50.002,100C22.386,100,0,77.614,0,49.998C0,22.386,22.386,0,50.002,0
	C77.614,0,100,22.386,100,49.998z"/>
<path class="butterfly" fill="#FCEE21" d="M74.706,34.128c-0.144,0.34-0.24,0.826-0.192,1.265c0.049,0.437-0.144,1.069-0.238,1.312
	c-0.098,0.244-0.098,1.07-0.098,1.266c0,0.194-0.143,0.826-0.335,1.021c-0.192,0.194-0.288,0.632-0.288,0.972
	c0,0.341-0.384,1.216-0.574,1.41c-0.192,0.195-0.576,0.632-0.576,0.924c0,0.291-0.383,1.41-0.672,1.702
	c-0.287,0.292-0.719,0.729-0.719,0.973c0,0.243,0,0.973-0.383,1.46c-0.384,0.485-0.672,1.215-0.672,1.505
	c0,0.293-0.336,1.12-0.527,1.363c-0.192,0.242-0.67,1.215-1.008,1.604c-0.335,0.39-1.726,1.848-2.925,1.945
	c-0.747,0.061-2.76,0.141-4.892,0.098c0,0,4.154,0.603,5.539,2.006c1.006,1.021,0.61,1.423,0.61,1.678s0.216,0.766,0.36,0.985
	c0.143,0.219,0.322,0.911,0.035,1.312c-0.286,0.401-0.432,0.912-0.359,1.241c0.073,0.328,0.216,1.203,0,1.677
	c-0.216,0.475-0.539,0.803-0.719,1.277s-0.072,1.167-0.432,1.422s-1.187,0.657-1.511,1.094c-0.323,0.438-0.54,0.729-1.043,0.656
	c-0.503-0.072-1.149-0.145-1.475,0.037c-0.323,0.182-0.718,0.109-1.007-0.037c-0.287-0.145-0.971-0.475-1.438-0.328
	s-3.021,0.146-4.675-2.589c-0.716-1.185-1.329-2.416-1.812-3.528c0,2.864-0.306,5.707-1.638,5.721c0.002,0,0.005,0.003,0.009,0.003
	h-0.017c0.003,0,0.005-0.003,0.008-0.003c-1.357-0.014-1.648-2.959-1.636-5.875c-0.492,1.152-1.131,2.443-1.88,3.683
	c-1.653,2.735-4.207,2.735-4.675,2.589c-0.467-0.146-1.15,0.184-1.438,0.328c-0.287,0.146-0.683,0.219-1.006,0.037
	c-0.323-0.182-0.971-0.109-1.475-0.037c-0.503,0.074-0.719-0.219-1.042-0.656c-0.324-0.438-1.151-0.839-1.511-1.094
	c-0.359-0.255-0.251-0.947-0.432-1.422c-0.18-0.475-0.503-0.803-0.719-1.277c-0.215-0.475-0.072-1.349,0-1.677
	c0.072-0.329-0.072-0.839-0.36-1.241c-0.288-0.4-0.107-1.094,0.036-1.312c0.143-0.218,0.359-0.73,0.359-0.985
	s-0.396-0.656,0.612-1.678c1.385-1.403,5.537-2.006,5.538-2.006c-2.13,0.043-4.143-0.037-4.891-0.098
	c-1.199-0.097-2.589-1.556-2.925-1.945c-0.336-0.389-0.815-1.362-1.006-1.604c-0.192-0.243-0.528-1.07-0.528-1.363
	c0-0.291-0.288-1.021-0.671-1.505c-0.384-0.487-0.384-1.217-0.384-1.46c0-0.244-0.432-0.68-0.719-0.973
	c-0.288-0.292-0.672-1.411-0.672-1.702c0-0.292-0.382-0.729-0.575-0.924c-0.192-0.194-0.576-1.069-0.576-1.41
	c0-0.34-0.096-0.778-0.288-0.972c-0.192-0.195-0.335-0.827-0.335-1.021c0-0.195,0-1.021-0.096-1.266
	c-0.096-0.242-0.288-0.875-0.24-1.312c0.049-0.438-0.048-0.925-0.192-1.265c-0.143-0.341-0.191-0.973,0.097-1.168
	c0.287-0.194,1.342-0.632,3.499-0.632c2.158,0,4.269,0.924,5.707,1.703c1.438,0.778,3.739,2.577,4.458,3.015
	c0.72,0.438,3.357,3.064,5.562,5.398c1.208,1.279,2.213,3.372,2.876,5.007c0.12-0.27,0.229-0.466,0.241-0.687
	c0.02-0.399,0.191-0.625,0.405-0.753c-0.174-0.147-0.261-0.348-0.32-0.559c-0.115-0.03-0.288-0.787,0-1.138
	c0.287-0.35,0.862-0.174,0.862-0.174c-0.006,0.015-0.013,0.032-0.02,0.048c0.019-0.003,0.036-0.007,0.055-0.011
	c0.003-0.559-0.151-0.976-0.326-1.292c-0.275-0.499-0.725-1.244-1.013-1.754c-0.243-0.431-2.311-4.151-2.517-4.523
	c-0.323-0.583-1.151-2.224-1.33-2.626c-0.18-0.4-0.18-0.693-0.18-1.021s0.036-0.437,0.18-0.437s0.107,0.656,0.144,1.203
	c0.036,0.548,1.941,3.976,2.481,4.96c0.539,0.984,1.948,3.426,2.337,4.121c0.279,0.499,0.374,0.985,0.402,1.342
	c0.055-0.004,0.11-0.01,0.161-0.01c0.01,0,0.016,0.002,0.025,0.002c0.028-0.356,0.125-0.839,0.4-1.333
	c0.389-0.695,1.797-3.137,2.336-4.121c0.54-0.984,2.446-4.413,2.482-4.96c0.035-0.547,0-1.203,0.144-1.203s0.181,0.109,0.181,0.437
	s0,0.621-0.181,1.021c-0.18,0.402-1.007,2.043-1.329,2.626c-0.207,0.373-2.275,4.093-2.519,4.523
	c-0.287,0.51-0.738,1.256-1.013,1.755c-0.172,0.312-0.326,0.724-0.328,1.275c0.039,0.004,0.084,0.005,0.117,0.012
	c-0.006-0.011-0.01-0.023-0.015-0.033c0,0,0.574-0.176,0.862,0.174c0.287,0.351,0.115,1.108,0,1.138
	c-0.01,0.002-0.027-0.008-0.043-0.017c0,0.005,0,0.012,0,0.017c-0.014,0.16-0.137,0.356-0.352,0.513
	c0.252,0.114,0.459,0.354,0.479,0.8c0.01,0.198,0.101,0.38,0.205,0.61c0.664-1.623,1.655-3.671,2.846-4.93
	c2.205-2.334,4.843-4.96,5.562-5.398c0.72-0.438,3.021-2.237,4.459-3.015c1.438-0.778,3.548-1.703,5.707-1.703
	c2.158,0,3.211,0.438,3.5,0.632C74.898,33.156,74.85,33.788,74.706,34.128z"/>
</svg>