<?xml version="1.0" encoding="utf-8"?>
<!-- Generator: Adobe Illustrator 15.0.0, SVG Export Plug-In  -->
<!DOCTYPE svg PUBLIC "-//W3C//DTD SVG 1.1//EN" "http://www.w3.org/Graphics/SVG/1.1/DTD/svg11.dtd" [
	<!ENTITY ns_flows "http://ns.adobe.com/Flows/1.0/">
]>
<svg version="1.1"
	 xmlns="http://www.w3.org/2000/svg" xmlns:xlink="http://www.w3.org/1999/xlink" xmlns:a="http://ns.adobe.com/AdobeSVGViewerExtensions/3.0/"
	 x="0px" y="0px" width="100px" height="100px" viewBox="0 0 100 100" overflow="visible" enable-background="new 0 0 100 100"
	 xml:space="preserve">
<defs>
</defs>
<path fill="#FFFFFF" d="M50,0C22.387,0,0,22.385,0,50c0,27.614,22.387,50,50,50c27.614,0,50-22.386,50-50C100,22.385,77.614,0,50,0z
	 M74.206,33.628c-0.144,0.34-0.24,0.826-0.192,1.265c0.048,0.437-0.144,1.069-0.239,1.312c-0.097,0.244-0.097,1.07-0.097,1.266
	c0,0.194-0.143,0.826-0.335,1.021c-0.192,0.194-0.288,0.632-0.288,0.972c0,0.341-0.384,1.216-0.575,1.41
	c-0.192,0.195-0.576,0.632-0.576,0.924c0,0.291-0.383,1.41-0.671,1.702c-0.288,0.292-0.719,0.729-0.719,0.973
	c0,0.243,0,0.973-0.383,1.46c-0.384,0.485-0.672,1.215-0.672,1.505c0,0.293-0.336,1.12-0.528,1.363
	c-0.192,0.242-0.67,1.215-1.007,1.604c-0.335,0.39-1.726,1.848-2.925,1.945c-0.747,0.06-2.76,0.14-4.891,0.097
	c0,0,4.154,0.603,5.538,2.006c1.007,1.021,0.611,1.423,0.611,1.678c0,0.255,0.216,0.766,0.36,0.985
	c0.143,0.219,0.323,0.912,0.036,1.312c-0.287,0.401-0.432,0.912-0.36,1.241c0.073,0.328,0.216,1.203,0,1.676
	c-0.216,0.476-0.539,0.804-0.719,1.278c-0.18,0.474-0.072,1.167-0.431,1.422c-0.36,0.255-1.187,0.657-1.511,1.094
	c-0.324,0.437-0.54,0.729-1.043,0.656c-0.503-0.072-1.15-0.145-1.475,0.037c-0.323,0.182-0.718,0.11-1.006-0.037
	c-0.287-0.145-0.971-0.474-1.438-0.328c-0.467,0.146-3.021,0.146-4.675-2.589c-0.716-1.185-1.329-2.416-1.812-3.529
	c0.001,2.865-0.305,5.708-1.637,5.721c0.002,0,0.005,0.003,0.008,0.003h-0.016c0.003,0,0.005-0.003,0.008-0.003
	c-1.357-0.013-1.648-2.959-1.636-5.875c-0.492,1.152-1.131,2.444-1.88,3.683c-1.653,2.735-4.207,2.735-4.675,2.589
	c-0.467-0.146-1.15,0.183-1.438,0.328c-0.287,0.147-0.683,0.219-1.006,0.037s-0.971-0.109-1.475-0.037
	c-0.503,0.074-0.719-0.219-1.042-0.656c-0.324-0.438-1.151-0.839-1.511-1.094c-0.359-0.255-0.251-0.948-0.432-1.422
	c-0.18-0.475-0.503-0.802-0.719-1.278c-0.215-0.474-0.072-1.348,0-1.676c0.072-0.329-0.072-0.839-0.36-1.241
	c-0.288-0.4-0.107-1.094,0.036-1.312s0.359-0.73,0.359-0.985c0-0.255-0.396-0.657,0.612-1.678c1.385-1.403,5.537-2.006,5.538-2.006
	c-2.13,0.043-4.143-0.037-4.891-0.097c-1.199-0.097-2.589-1.556-2.925-1.945s-0.815-1.362-1.006-1.604
	c-0.192-0.243-0.528-1.07-0.528-1.363c0-0.291-0.288-1.021-0.671-1.505c-0.384-0.487-0.384-1.217-0.384-1.46
	c0-0.244-0.432-0.68-0.719-0.973c-0.288-0.292-0.672-1.411-0.672-1.702c0-0.292-0.382-0.729-0.575-0.924
	c-0.192-0.194-0.576-1.069-0.576-1.41c0-0.34-0.096-0.778-0.288-0.972c-0.192-0.195-0.335-0.827-0.335-1.021
	c0-0.195,0-1.021-0.096-1.266c-0.096-0.242-0.288-0.875-0.24-1.312c0.049-0.438-0.048-0.925-0.192-1.265
	c-0.143-0.341-0.191-0.973,0.097-1.168c0.287-0.194,1.342-0.632,3.499-0.632c2.158,0,4.269,0.924,5.707,1.703
	c1.438,0.778,3.739,2.577,4.458,3.015c0.72,0.438,3.357,3.064,5.562,5.398c1.208,1.279,2.213,3.372,2.876,5.007
	c0.12-0.27,0.229-0.466,0.241-0.687c0.02-0.399,0.191-0.625,0.405-0.753c-0.174-0.147-0.261-0.348-0.32-0.559
	c-0.115-0.03-0.288-0.787,0-1.138c0.287-0.35,0.862-0.174,0.862-0.174c-0.006,0.015-0.013,0.032-0.02,0.048
	c0.019-0.003,0.036-0.007,0.055-0.011c0.003-0.559-0.151-0.976-0.326-1.292c-0.275-0.499-0.725-1.244-1.013-1.754
	c-0.243-0.431-2.311-4.151-2.517-4.523c-0.323-0.583-1.151-2.224-1.33-2.626c-0.18-0.4-0.18-0.693-0.18-1.021
	c0-0.328,0.036-0.437,0.18-0.437c0.144,0,0.107,0.656,0.144,1.203c0.036,0.548,1.941,3.976,2.481,4.96
	c0.539,0.984,1.948,3.426,2.337,4.121c0.279,0.499,0.374,0.985,0.402,1.342c0.055-0.004,0.11-0.01,0.161-0.01
	c0.01,0,0.015,0.002,0.025,0.002c0.029-0.356,0.125-0.839,0.401-1.333c0.388-0.695,1.797-3.137,2.336-4.121
	c0.54-0.984,2.446-4.413,2.482-4.96c0.036-0.547,0-1.203,0.144-1.203c0.144,0,0.18,0.109,0.18,0.437c0,0.328,0,0.621-0.18,1.021
	c-0.18,0.402-1.007,2.043-1.33,2.626c-0.207,0.373-2.275,4.093-2.518,4.523c-0.287,0.51-0.738,1.256-1.013,1.755
	c-0.171,0.312-0.326,0.724-0.327,1.275c0.038,0.004,0.084,0.005,0.116,0.012c-0.005-0.011-0.01-0.023-0.014-0.033
	c0,0,0.574-0.176,0.862,0.174c0.287,0.351,0.115,1.108,0,1.138c-0.01,0.002-0.027-0.008-0.043-0.017c0,0.005,0,0.012,0,0.017
	c-0.014,0.16-0.136,0.356-0.351,0.513c0.251,0.114,0.458,0.354,0.479,0.8c0.01,0.198,0.101,0.38,0.205,0.61
	c0.664-1.623,1.656-3.671,2.846-4.93c2.205-2.334,4.843-4.96,5.562-5.398c0.719-0.438,3.021-2.237,4.459-3.015
	c1.438-0.778,3.547-1.703,5.706-1.703c2.158,0,3.212,0.438,3.5,0.632C74.398,32.656,74.35,33.288,74.206,33.628z"/>
</svg>
