<svg 
	version="1.0"
	xmlns="http://www.w3.org/2000/svg" 
	xmlns:xlink="http://www.w3.org/1999/xlink" 
	viewBox="-5 -6.343 426 284"
	preserveAspectRatio="xMidYMid meet"
	id="teapot"
	>
    <defs>
        <linearGradient id="teapotgrad" x1="0%" y1="0%" x2="0%" y2="100%">
            <stop offset="0%" style="stop-color:rgb(255,255,0);stop-opacity:1"></stop>
            <stop offset="100%" style="stop-color:rgb(255,0,0);stop-opacity:1"></stop>
        </linearGradient>
	</defs>
<path fill="url(#teapotgrad)" d="M411.757,77.167c-7.334-22.333-28.333-38.667-48-38.667s-39,14-44.333,19c-3.938,3.691-7.506,2.478-9.106,1.589
	c-20.7-19.806-49.626-30.5-80.2-34.241c1.762-2.925,4.141-7.649,4.141-11.848c0-6.667-8.334-13-18.667-13s-18.667,6.333-18.667,13
	c0,3.563,1.713,7.498,3.309,10.397c-15.201,0.835-67.533,7.805-91.809,63.353l0-0.25c0,0-4.667,13.667-15.667,10
	s-25.905-24.327-41-43.667c-10.667-13.667-26-10-32.667-7.667s-20.333,7-19,11s7.667,5.333,11,6s9.44,3.657,17.667,21
	c12.333,26,23.883,110.456,70.667,128c5.189,1.946,7.565,4.307,8.6,5.729c11.199,23.249,26.787,32.193,31.598,36.083
	c1.469,1.188,0.802,5.521,5.802,7.854s16.334,9.666,68,9.666s64.666-7.334,67.666-9s3.334-6.333,5.334-7.333
	c1.419-0.709,28.497-16.188,44.119-55.225c4.371-7.433,11.619-10.142,14.547-11.441C428.424,150.5,419.091,99.5,411.757,77.167z
	 M278.278,100.443c-0.377,0.879-0.628,2.134-0.502,3.263c0.125,1.13-0.377,2.762-0.628,3.389c-0.251,0.628-0.251,2.762-0.251,3.264
	c0,0.501-0.376,2.133-0.878,2.636c-0.503,0.501-0.753,1.631-0.753,2.51c0,0.878-1.005,3.138-1.507,3.64s-1.506,1.632-1.506,2.385
	c0,0.753-1.004,3.64-1.758,4.393c-0.753,0.753-1.883,1.883-1.883,2.512c0,0.627,0,2.51-1.004,3.765s-1.758,3.137-1.758,3.891
	c0,0.753-0.878,2.888-1.38,3.515c-0.502,0.628-1.758,3.139-2.637,4.143c-0.878,1.004-4.518,4.77-7.655,5.021
	c-1.956,0.156-7.226,0.36-12.803,0.251c0.002,0,10.872,1.553,14.497,5.177c2.636,2.637,1.601,3.672,1.601,4.331
	s0.564,1.978,0.941,2.542c0.376,0.564,0.847,2.354,0.094,3.388c-0.753,1.036-1.13,2.354-0.942,3.201c0.189,0.848,0.566,3.106,0,4.33
	c-0.564,1.225-1.411,2.071-1.882,3.295s-0.188,3.013-1.13,3.672c-0.94,0.658-3.106,1.694-3.953,2.824
	c-0.848,1.13-1.412,1.882-2.73,1.694c-1.317-0.188-3.012-0.377-3.86,0.094c-0.847,0.471-1.882,0.282-2.635-0.094
	c-0.753-0.377-2.542-1.224-3.766-0.848c-1.224,0.377-7.907,0.377-12.238-6.684c-1.863-3.039-3.48-6.214-4.743-9.074
	c0,7.384-0.804,14.705-4.288,14.736c0.008,0,0.015,0.004,0.022,0.004h-0.044c0.008,0,0.015-0.004,0.021-0.004
	c-3.546-0.032-4.313-7.618-4.284-15.134c-1.287,2.961-2.967,6.291-4.917,9.472c-4.331,7.061-11.015,7.061-12.238,6.684
	c-1.224-0.376-3.012,0.471-3.765,0.848c-0.754,0.376-1.789,0.564-2.637,0.094c-0.847-0.471-2.541-0.282-3.859-0.094
	c-1.317,0.188-1.882-0.564-2.73-1.694c-0.847-1.13-3.013-2.166-3.954-2.824c-0.941-0.659-0.659-2.448-1.129-3.672
	s-1.317-2.07-1.882-3.295c-0.564-1.224-0.188-3.482,0-4.33c0.188-0.847-0.188-2.165-0.941-3.201
	c-0.754-1.034-0.283-2.823,0.094-3.388c0.376-0.564,0.941-1.883,0.941-2.542s-1.035-1.694,1.6-4.331
	c3.625-3.624,14.496-5.177,14.498-5.177c-5.577,0.109-10.848-0.095-12.804-0.251c-3.137-0.251-6.778-4.017-7.657-5.021
	s-2.133-3.515-2.635-4.143c-0.502-0.627-1.38-2.762-1.38-3.515c0-0.754-0.753-2.636-1.758-3.891
	c-1.003-1.255-1.003-3.137-1.003-3.765c0-0.628-1.129-1.759-1.884-2.512c-0.753-0.753-1.757-3.639-1.757-4.393
	c0-0.753-1.003-1.883-1.506-2.385c-0.502-0.502-1.506-2.761-1.506-3.64c0-0.879-0.251-2.009-0.753-2.51
	c-0.503-0.502-0.879-2.134-0.879-2.636c0-0.502,0-2.636-0.251-3.264c-0.251-0.627-0.753-2.259-0.627-3.389
	c0.125-1.129-0.125-2.384-0.502-3.263c-0.376-0.879-0.501-2.51,0.251-3.012c0.753-0.502,3.514-1.632,9.163-1.632
	c5.647,0,11.171,2.385,14.936,4.394c3.767,2.008,9.79,6.652,11.673,7.782c1.883,1.13,8.786,7.908,14.559,13.932
	c3.162,3.299,5.795,8.704,7.531,12.919c0.314-0.695,0.6-1.199,0.628-1.769c0.052-1.021,0.486-1.62,1.039-1.951
	c-0.444-0.379-0.663-0.897-0.817-1.438c-0.301-0.075-0.752-2.033,0-2.936c0.661-0.791,1.897-0.542,2.193-0.469v0.115h0.025
	c-0.004,0.01-0.008,0.02-0.012,0.029c0.051-0.011,0.1-0.021,0.15-0.029h1.675v-0.025c0.009,0.001,0.021,0.003,0.029,0.005
	c-0.008-0.023-0.021-0.048-0.029-0.073v-0.005c0.011-0.003,1.506-0.447,2.255,0.452c0.753,0.903,0.302,2.86,0,2.936
	c-0.025,0.006-0.07-0.021-0.111-0.042c-0.001,0.013-0.001,0.029-0.003,0.042c-0.036,0.412-0.354,0.917-0.914,1.321
	c0.653,0.297,1.194,0.918,1.252,2.067c0.025,0.513,0.261,0.977,0.536,1.573c1.737-4.188,4.337-9.477,7.45-12.724
	c5.774-6.024,12.677-12.802,14.56-13.932c1.883-1.129,7.908-5.774,11.674-7.782c3.765-2.009,9.288-4.394,14.936-4.394
	c5.648,0,8.41,1.13,9.163,1.632C278.78,97.934,278.654,99.564,278.278,100.443z M347.09,165.833
	c-2.859,0.408-5.218-1.909-7.008-4.793c0.864-7.043,1.342-14.549,1.342-22.541c0-16.493-2.646-30.928-7.396-43.494
	c3.312-5.487,0.127-8.93,0.729-19.172c1.098-18.646,17.667-22.333,29-22.333c12.333,0,36.333,13.333,39,37.667
	C408.911,147.306,354.09,164.833,347.09,165.833z"/>
</svg>
