<svg version="1.1"
	 xmlns="http://www.w3.org/2000/svg" xmlns:xlink="http://www.w3.org/1999/xlink" xmlns:a="http://ns.adobe.com/AdobeSVGViewerExtensions/3.0/"
	 x="0px" y="0px" width="100px" height="100px" viewBox="0 0 100 100" overflow="visible" enable-background="new 0 0 100 100"
	 xml:space="preserve">
<defs></defs>
<circle fill="#6D2020" cx="50" cy="50" r="50"/>
<path fill="#FFFFFF" d="M80.988,31.292c-2.28,1.012-4.733,1.696-7.307,2.003c2.626-1.574,4.643-4.067,5.593-7.037
	c-2.457,1.458-5.18,2.516-8.075,3.087c-2.321-2.473-5.628-4.017-9.286-4.017c-7.024,0-12.721,5.695-12.721,12.719
	c0,0.997,0.113,1.968,0.329,2.899c-10.57-0.531-19.944-5.595-26.218-13.291c-1.095,1.879-1.722,4.064-1.722,6.395
	c0,4.414,2.246,8.307,5.66,10.587c-2.086-0.066-4.047-0.639-5.762-1.591c-0.001,0.053-0.001,0.106-0.001,0.16
	c0,6.163,4.385,11.304,10.203,12.473c-1.067,0.29-2.19,0.446-3.351,0.446c-0.819,0-1.616-0.08-2.394-0.229
	c1.619,5.054,6.316,8.732,11.883,8.835c-4.353,3.411-9.838,5.444-15.798,5.444c-1.026,0-2.039-0.06-3.034-0.178
	c5.629,3.608,12.316,5.715,19.499,5.715c23.397,0,36.191-19.382,36.191-36.191c0-0.551-0.013-1.101-0.036-1.646
	C77.126,36.083,79.283,33.843,80.988,31.292z"/>
</svg>
